# MagicaVoxel @ Ephtracy

# group
g FarmMap

# material
mtllib FarmMap.mtl
usemtl palette

# normals
vn -1 0 0
vn 1 0 0
vn 0 0 1
vn 0 0 -1
vn 0 -1 0
vn 0 1 0

# texcoords
vt 0.228516 0.5
vt 0.396484 0.5
vt 0.892578 0.5
vt 0.978516 0.5

# verts
v -15 0 15
v -15 0 -15
v -15 1 -7
v -15 1 -9
v -15 2 -5
v -15 2 -7
v -15 3 12
v -15 3 9
v -15 3 5
v -15 3 4
v -15 3 2
v -15 3 -1
v -15 3 -9
v -15 3 -10
v -15 3 -14
v -15 3 -15
v -15 4 13
v -15 4 12
v -15 4 3
v -15 4 2
v -15 4 -11
v -15 4 -13
v -15 5 15
v -15 5 13
v -15 5 9
v -15 5 5
v -15 5 4
v -15 5 3
v -15 5 -1
v -15 5 -5
v -15 5 -10
v -15 5 -11
v -15 5 -13
v -15 5 -14
v -15 6 14
v -15 6 13
v -15 6 4
v -15 6 3
v -15 7 13
v -15 7 11
v -15 7 7
v -15 7 5
v -15 7 3
v -15 7 1
v -15 7 -3
v -15 7 -9
v -15 8 15
v -15 8 14
v -15 8 13
v -15 8 11
v -15 8 7
v -15 8 5
v -15 8 4
v -15 8 3
v -15 8 1
v -15 8 -3
v -15 8 -5
v -15 8 -8
v -15 8 -9
v -15 8 -15
v -15 9 15
v -15 9 14
v -15 9 13
v -15 9 4
v -15 9 3
v -15 9 -5
v -15 9 -8
v -15 9 -15
v -15 11 15
v -15 11 -15
v 15 0 15
v 15 0 -15
v 15 1 -7
v 15 1 -9
v 15 2 -5
v 15 2 -7
v 15 3 12
v 15 3 9
v 15 3 2
v 15 3 -1
v 15 3 -9
v 15 3 -10
v 15 4 13
v 15 4 12
v 15 4 3
v 15 4 2
v 15 4 -11
v 15 4 -13
v 15 5 15
v 15 5 13
v 15 5 9
v 15 5 3
v 15 5 -1
v 15 5 -5
v 15 5 -10
v 15 5 -11
v 15 5 -13
v 15 5 -15
v 15 6 14
v 15 6 13
v 15 6 4
v 15 6 3
v 15 7 13
v 15 7 11
v 15 7 7
v 15 7 5
v 15 7 3
v 15 7 1
v 15 7 -3
v 15 7 -9
v 15 8 15
v 15 8 14
v 15 8 13
v 15 8 11
v 15 8 7
v 15 8 5
v 15 8 4
v 15 8 3
v 15 8 1
v 15 8 -3
v 15 8 -5
v 15 8 -8
v 15 8 -9
v 15 8 -15
v 15 9 15
v 15 9 14
v 15 9 13
v 15 9 4
v 15 9 3
v 15 9 -5
v 15 9 -8
v 15 9 -15
v 15 11 15
v 15 11 -15
v -15 0 15
v -15 5 15
v -15 8 15
v -15 9 15
v -15 11 15
v -14 4 15
v -14 5 15
v -12 4 15
v -12 5 15
v -11 3 15
v -11 5 15
v -10 1 15
v -10 3 15
v -10 7 15
v -10 8 15
v -9 8 15
v -9 9 15
v -8 1 15
v -8 2 15
v -6 2 15
v -6 5 15
v -6 8 15
v -6 9 15
v -4 7 15
v -4 8 15
v -2 3 15
v -2 5 15
v 0 7 15
v 0 8 15
v 1 3 15
v 1 4 15
v 2 4 15
v 2 5 15
v 2 6 15
v 2 7 15
v 2 8 15
v 2 9 15
v 3 7 15
v 3 8 15
v 4 2 15
v 4 5 15
v 4 6 15
v 4 7 15
v 4 8 15
v 5 2 15
v 5 5 15
v 5 8 15
v 5 9 15
v 7 7 15
v 7 8 15
v 9 3 15
v 9 5 15
v 11 7 15
v 11 8 15
v 12 3 15
v 12 4 15
v 13 4 15
v 13 5 15
v 13 6 15
v 13 7 15
v 13 8 15
v 13 9 15
v 14 6 15
v 14 8 15
v 14 9 15
v 15 0 15
v 15 5 15
v 15 8 15
v 15 9 15
v 15 11 15
v -15 0 -15
v -15 3 -15
v -15 8 -15
v -15 9 -15
v -15 11 -15
v -14 1 -15
v -14 3 -15
v -14 7 -15
v -14 8 -15
v -13 8 -15
v -13 9 -15
v -12 1 -15
v -12 2 -15
v -10 2 -15
v -10 5 -15
v -10 8 -15
v -10 9 -15
v -8 7 -15
v -8 8 -15
v -6 3 -15
v -6 5 -15
v -4 7 -15
v -4 8 -15
v -3 3 -15
v -3 4 -15
v -2 4 -15
v -2 5 -15
v -2 6 -15
v -2 7 -15
v -2 8 -15
v -2 9 -15
v -1 7 -15
v -1 8 -15
v 0 3 -15
v 0 5 -15
v 0 6 -15
v 0 7 -15
v 0 8 -15
v 0 9 -15
v 1 1 -15
v 1 3 -15
v 1 7 -15
v 1 8 -15
v 2 8 -15
v 2 9 -15
v 3 1 -15
v 3 2 -15
v 5 2 -15
v 5 5 -15
v 5 8 -15
v 5 9 -15
v 7 7 -15
v 7 8 -15
v 9 3 -15
v 9 5 -15
v 10 3 -15
v 10 5 -15
v 12 4 -15
v 12 5 -15
v 14 4 -15
v 14 5 -15
v 15 0 -15
v 15 5 -15
v 15 8 -15
v 15 9 -15
v 15 11 -15
v -15 0 15
v 15 0 15
v -15 0 -15
v 15 0 -15
v -15 11 15
v 15 11 15
v -15 11 -15
v 15 11 -15

# faces
f 3/4/1 2/4/1 1/4/1
f 4/4/1 2/4/1 3/4/1
f 5/4/1 3/4/1 1/4/1
f 6/2/1 4/2/1 3/2/1
f 6/4/1 3/4/1 5/4/1
f 7/4/1 5/4/1 1/4/1
f 8/4/1 5/4/1 7/4/1
f 9/4/1 5/4/1 8/4/1
f 10/4/1 5/4/1 9/4/1
f 11/4/1 5/4/1 10/4/1
f 12/4/1 5/4/1 11/4/1
f 13/4/1 2/4/1 4/4/1
f 13/2/1 4/2/1 6/2/1
f 13/2/1 6/2/1 5/2/1
f 14/4/1 2/4/1 13/4/1
f 15/4/1 2/4/1 14/4/1
f 16/4/1 2/4/1 15/4/1
f 17/4/1 7/4/1 1/4/1
f 18/2/1 8/2/1 7/2/1
f 18/4/1 7/4/1 17/4/1
f 19/4/1 11/4/1 10/4/1
f 20/2/1 12/2/1 11/2/1
f 20/4/1 11/4/1 19/4/1
f 21/4/1 15/4/1 14/4/1
f 22/4/1 15/4/1 21/4/1
f 23/4/1 17/4/1 1/4/1
f 24/2/1 18/2/1 17/2/1
f 24/4/1 17/4/1 23/4/1
f 25/2/1 8/2/1 18/2/1
f 25/2/1 18/2/1 24/2/1
f 25/4/1 9/4/1 8/4/1
f 26/2/1 10/2/1 9/2/1
f 26/4/1 9/4/1 25/4/1
f 27/4/1 19/4/1 10/4/1
f 27/2/1 10/2/1 26/2/1
f 28/2/1 20/2/1 19/2/1
f 28/4/1 19/4/1 27/4/1
f 29/4/1 5/4/1 12/4/1
f 29/2/1 20/2/1 28/2/1
f 29/2/1 12/2/1 20/2/1
f 30/2/1 13/2/1 5/2/1
f 30/4/1 5/4/1 29/4/1
f 30/2/1 14/2/1 13/2/1
f 31/4/1 21/4/1 14/4/1
f 31/2/1 14/2/1 30/2/1
f 32/2/1 22/2/1 21/2/1
f 32/4/1 21/4/1 31/4/1
f 33/4/1 15/4/1 22/4/1
f 33/2/1 22/2/1 32/2/1
f 34/2/1 16/2/1 15/2/1
f 34/4/1 15/4/1 33/4/1
f 35/2/1 28/2/1 27/2/1
f 35/2/1 26/2/1 25/2/1
f 35/2/1 34/2/1 33/2/1
f 35/2/1 24/2/1 23/2/1
f 35/2/1 33/2/1 32/2/1
f 35/2/1 30/2/1 29/2/1
f 35/2/1 27/2/1 26/2/1
f 35/2/1 29/2/1 28/2/1
f 35/2/1 25/2/1 24/2/1
f 35/2/1 31/2/1 30/2/1
f 35/2/1 32/2/1 31/2/1
f 36/2/1 34/2/1 35/2/1
f 37/2/1 34/2/1 36/2/1
f 38/2/1 34/2/1 37/2/1
f 39/1/1 36/1/1 35/1/1
f 39/2/1 37/2/1 36/2/1
f 40/2/1 37/2/1 39/2/1
f 41/2/1 37/2/1 40/2/1
f 42/2/1 37/2/1 41/2/1
f 43/2/1 34/2/1 38/2/1
f 43/1/1 38/1/1 37/1/1
f 44/2/1 34/2/1 43/2/1
f 45/2/1 34/2/1 44/2/1
f 46/2/1 34/2/1 45/2/1
f 47/2/1 35/2/1 23/2/1
f 48/1/1 39/1/1 35/1/1
f 48/2/1 35/2/1 47/2/1
f 48/1/1 40/1/1 39/1/1
f 49/1/1 40/1/1 48/1/1
f 50/2/1 41/2/1 40/2/1
f 50/1/1 40/1/1 49/1/1
f 51/1/1 42/1/1 41/1/1
f 51/2/1 41/2/1 50/2/1
f 52/2/1 37/2/1 42/2/1
f 52/1/1 42/1/1 51/1/1
f 53/1/1 43/1/1 37/1/1
f 53/2/1 37/2/1 52/2/1
f 53/1/1 44/1/1 43/1/1
f 54/1/1 44/1/1 53/1/1
f 55/2/1 45/2/1 44/2/1
f 55/1/1 44/1/1 54/1/1
f 56/1/1 46/1/1 45/1/1
f 56/2/1 45/2/1 55/2/1
f 57/1/1 46/1/1 56/1/1
f 58/1/1 46/1/1 57/1/1
f 59/2/1 34/2/1 46/2/1
f 59/1/1 46/1/1 58/1/1
f 60/2/1 16/2/1 34/2/1
f 60/2/1 34/2/1 59/2/1
f 61/1/1 48/1/1 47/1/1
f 62/3/1 49/3/1 48/3/1
f 62/1/1 48/1/1 61/1/1
f 63/1/1 51/1/1 50/1/1
f 63/3/1 49/3/1 62/3/1
f 63/1/1 50/1/1 49/1/1
f 63/1/1 52/1/1 51/1/1
f 63/1/1 53/1/1 52/1/1
f 64/3/1 54/3/1 53/3/1
f 64/1/1 53/1/1 63/1/1
f 65/1/1 55/1/1 54/1/1
f 65/3/1 54/3/1 64/3/1
f 65/1/1 57/1/1 56/1/1
f 65/1/1 56/1/1 55/1/1
f 66/3/1 58/3/1 57/3/1
f 66/1/1 57/1/1 65/1/1
f 67/1/1 59/1/1 58/1/1
f 67/3/1 58/3/1 66/3/1
f 67/1/1 60/1/1 59/1/1
f 68/1/1 60/1/1 67/1/1
f 69/3/1 66/3/1 65/3/1
f 69/3/1 65/3/1 64/3/1
f 69/3/1 68/3/1 67/3/1
f 69/3/1 67/3/1 66/3/1
f 69/3/1 63/3/1 62/3/1
f 69/3/1 62/3/1 61/3/1
f 69/3/1 64/3/1 63/3/1
f 70/3/1 68/3/1 69/3/1
f 71/4/2 72/4/2 73/4/2
f 73/4/2 72/4/2 74/4/2
f 71/4/2 73/4/2 75/4/2
f 73/2/2 74/2/2 76/2/2
f 75/4/2 73/4/2 76/4/2
f 71/4/2 75/4/2 77/4/2
f 77/4/2 75/4/2 78/4/2
f 78/4/2 75/4/2 79/4/2
f 79/4/2 75/4/2 80/4/2
f 74/4/2 72/4/2 81/4/2
f 76/2/2 74/2/2 81/2/2
f 75/2/2 76/2/2 81/2/2
f 81/4/2 72/4/2 82/4/2
f 71/4/2 77/4/2 83/4/2
f 77/2/2 78/2/2 84/2/2
f 83/4/2 77/4/2 84/4/2
f 78/4/2 79/4/2 85/4/2
f 79/2/2 80/2/2 86/2/2
f 85/4/2 79/4/2 86/4/2
f 82/4/2 72/4/2 87/4/2
f 87/4/2 72/4/2 88/4/2
f 71/4/2 83/4/2 89/4/2
f 83/2/2 84/2/2 90/2/2
f 89/4/2 83/4/2 90/4/2
f 78/4/2 85/4/2 91/4/2
f 90/2/2 84/2/2 91/2/2
f 84/2/2 78/2/2 91/2/2
f 85/2/2 86/2/2 92/2/2
f 91/4/2 85/4/2 92/4/2
f 80/4/2 75/4/2 93/4/2
f 92/2/2 86/2/2 93/2/2
f 86/2/2 80/2/2 93/2/2
f 75/2/2 81/2/2 94/2/2
f 93/4/2 75/4/2 94/4/2
f 81/2/2 82/2/2 94/2/2
f 82/4/2 87/4/2 95/4/2
f 94/2/2 82/2/2 95/2/2
f 87/2/2 88/2/2 96/2/2
f 95/4/2 87/4/2 96/4/2
f 88/4/2 72/4/2 97/4/2
f 96/2/2 88/2/2 97/2/2
f 97/4/2 72/4/2 98/4/2
f 91/2/2 92/2/2 99/2/2
f 89/2/2 90/2/2 99/2/2
f 97/2/2 98/2/2 99/2/2
f 96/2/2 97/2/2 99/2/2
f 94/2/2 95/2/2 99/2/2
f 90/2/2 91/2/2 99/2/2
f 92/2/2 93/2/2 99/2/2
f 95/2/2 96/2/2 99/2/2
f 93/2/2 94/2/2 99/2/2
f 99/2/2 98/2/2 100/2/2
f 100/2/2 98/2/2 101/2/2
f 101/2/2 98/2/2 102/2/2
f 99/1/2 100/1/2 103/1/2
f 100/2/2 101/2/2 103/2/2
f 103/2/2 101/2/2 104/2/2
f 104/2/2 101/2/2 105/2/2
f 105/2/2 101/2/2 106/2/2
f 102/2/2 98/2/2 107/2/2
f 101/1/2 102/1/2 107/1/2
f 107/2/2 98/2/2 108/2/2
f 108/2/2 98/2/2 109/2/2
f 109/2/2 98/2/2 110/2/2
f 89/2/2 99/2/2 111/2/2
f 99/1/2 103/1/2 112/1/2
f 111/2/2 99/2/2 112/2/2
f 103/1/2 104/1/2 112/1/2
f 112/1/2 104/1/2 113/1/2
f 104/2/2 105/2/2 114/2/2
f 113/1/2 104/1/2 114/1/2
f 105/1/2 106/1/2 115/1/2
f 114/2/2 105/2/2 115/2/2
f 106/2/2 101/2/2 116/2/2
f 115/1/2 106/1/2 116/1/2
f 101/1/2 107/1/2 117/1/2
f 116/2/2 101/2/2 117/2/2
f 107/1/2 108/1/2 117/1/2
f 117/1/2 108/1/2 118/1/2
f 108/2/2 109/2/2 119/2/2
f 118/1/2 108/1/2 119/1/2
f 109/1/2 110/1/2 120/1/2
f 119/2/2 109/2/2 120/2/2
f 120/1/2 110/1/2 121/1/2
f 121/1/2 110/1/2 122/1/2
f 110/2/2 98/2/2 123/2/2
f 122/1/2 110/1/2 123/1/2
f 123/2/2 98/2/2 124/2/2
f 111/1/2 112/1/2 125/1/2
f 112/3/2 113/3/2 126/3/2
f 125/1/2 112/1/2 126/1/2
f 114/1/2 115/1/2 127/1/2
f 126/3/2 113/3/2 127/3/2
f 113/1/2 114/1/2 127/1/2
f 115/1/2 116/1/2 127/1/2
f 116/1/2 117/1/2 127/1/2
f 117/3/2 118/3/2 128/3/2
f 127/1/2 117/1/2 128/1/2
f 118/1/2 119/1/2 129/1/2
f 128/3/2 118/3/2 129/3/2
f 120/1/2 121/1/2 129/1/2
f 119/1/2 120/1/2 129/1/2
f 121/3/2 122/3/2 130/3/2
f 129/1/2 121/1/2 130/1/2
f 123/1/2 124/1/2 131/1/2
f 130/3/2 122/3/2 131/3/2
f 122/1/2 123/1/2 131/1/2
f 131/1/2 124/1/2 132/1/2
f 128/3/2 129/3/2 133/3/2
f 125/3/2 126/3/2 133/3/2
f 131/3/2 132/3/2 133/3/2
f 130/3/2 131/3/2 133/3/2
f 129/3/2 130/3/2 133/3/2
f 126/3/2 127/3/2 133/3/2
f 127/3/2 128/3/2 133/3/2
f 133/3/2 132/3/2 134/3/2
f 140/4/3 136/4/3 135/4/3
f 141/2/3 137/2/3 136/2/3
f 141/4/3 136/4/3 140/4/3
f 142/4/3 140/4/3 135/4/3
f 142/2/3 141/2/3 140/2/3
f 143/2/3 137/2/3 141/2/3
f 143/2/3 141/2/3 142/2/3
f 144/4/3 142/4/3 135/4/3
f 144/4/3 143/4/3 142/4/3
f 145/2/3 137/2/3 143/2/3
f 145/4/3 143/4/3 144/4/3
f 146/4/3 144/4/3 135/4/3
f 147/2/3 145/2/3 144/2/3
f 147/4/3 144/4/3 146/4/3
f 148/2/3 137/2/3 145/2/3
f 148/2/3 145/2/3 147/2/3
f 149/1/3 138/1/3 137/1/3
f 149/2/3 137/2/3 148/2/3
f 150/1/3 149/1/3 148/1/3
f 150/1/3 138/1/3 149/1/3
f 151/3/3 139/3/3 138/3/3
f 151/1/3 138/1/3 150/1/3
f 152/2/3 147/2/3 146/2/3
f 152/2/3 148/2/3 147/2/3
f 152/4/3 146/4/3 135/4/3
f 153/2/3 148/2/3 152/2/3
f 154/4/3 153/4/3 152/4/3
f 154/2/3 148/2/3 153/2/3
f 155/2/3 148/2/3 154/2/3
f 156/1/3 150/1/3 148/1/3
f 156/3/3 151/3/3 150/3/3
f 157/3/3 139/3/3 151/3/3
f 157/3/3 151/3/3 156/3/3
f 158/2/3 148/2/3 155/2/3
f 158/1/3 156/1/3 148/1/3
f 158/1/3 157/1/3 156/1/3
f 159/1/3 157/1/3 158/1/3
f 160/4/3 155/4/3 154/4/3
f 161/2/3 158/2/3 155/2/3
f 161/4/3 155/4/3 160/4/3
f 161/2/3 159/2/3 158/2/3
f 162/2/3 161/2/3 160/2/3
f 162/2/3 159/2/3 161/2/3
f 163/1/3 157/1/3 159/1/3
f 163/2/3 159/2/3 162/2/3
f 164/2/3 162/2/3 160/2/3
f 164/4/3 160/4/3 154/4/3
f 165/2/3 162/2/3 164/2/3
f 166/4/3 165/4/3 164/4/3
f 166/2/3 162/2/3 165/2/3
f 167/2/3 162/2/3 166/2/3
f 168/2/3 162/2/3 167/2/3
f 169/1/3 163/1/3 162/1/3
f 169/2/3 162/2/3 168/2/3
f 170/1/3 157/1/3 163/1/3
f 170/1/3 163/1/3 169/1/3
f 171/3/3 139/3/3 157/3/3
f 171/1/3 157/1/3 170/1/3
f 172/1/3 170/1/3 169/1/3
f 172/1/3 169/1/3 168/1/3
f 173/3/3 171/3/3 170/3/3
f 173/1/3 170/1/3 172/1/3
f 174/4/3 154/4/3 152/4/3
f 174/4/3 164/4/3 154/4/3
f 174/4/3 166/4/3 164/4/3
f 174/4/3 167/4/3 166/4/3
f 175/2/3 168/2/3 167/2/3
f 175/4/3 167/4/3 174/4/3
f 176/1/3 172/1/3 168/1/3
f 176/2/3 168/2/3 175/2/3
f 177/3/3 173/3/3 172/3/3
f 177/1/3 172/1/3 176/1/3
f 178/3/3 171/3/3 173/3/3
f 178/3/3 173/3/3 177/3/3
f 179/2/3 177/2/3 176/2/3
f 179/2/3 175/2/3 174/2/3
f 179/4/3 174/4/3 152/4/3
f 179/2/3 176/2/3 175/2/3
f 180/2/3 177/2/3 179/2/3
f 181/3/3 171/3/3 178/3/3
f 181/1/3 178/1/3 177/1/3
f 182/3/3 139/3/3 171/3/3
f 182/3/3 171/3/3 181/3/3
f 183/1/3 181/1/3 177/1/3
f 183/2/3 177/2/3 180/2/3
f 183/1/3 182/1/3 181/1/3
f 184/1/3 182/1/3 183/1/3
f 185/4/3 180/4/3 179/4/3
f 186/2/3 183/2/3 180/2/3
f 186/4/3 180/4/3 185/4/3
f 186/2/3 184/2/3 183/2/3
f 187/2/3 186/2/3 185/2/3
f 187/2/3 184/2/3 186/2/3
f 188/1/3 182/1/3 184/1/3
f 188/2/3 184/2/3 187/2/3
f 189/2/3 187/2/3 185/2/3
f 189/4/3 185/4/3 179/4/3
f 190/2/3 187/2/3 189/2/3
f 191/4/3 190/4/3 189/4/3
f 191/2/3 187/2/3 190/2/3
f 192/2/3 187/2/3 191/2/3
f 193/2/3 187/2/3 192/2/3
f 194/1/3 188/1/3 187/1/3
f 194/2/3 187/2/3 193/2/3
f 195/1/3 182/1/3 188/1/3
f 195/1/3 188/1/3 194/1/3
f 196/3/3 139/3/3 182/3/3
f 196/1/3 182/1/3 195/1/3
f 197/1/3 195/1/3 194/1/3
f 197/1/3 194/1/3 193/1/3
f 197/2/3 193/2/3 192/2/3
f 198/3/3 196/3/3 195/3/3
f 198/1/3 195/1/3 197/1/3
f 199/3/3 139/3/3 196/3/3
f 199/3/3 196/3/3 198/3/3
f 200/4/3 179/4/3 152/4/3
f 200/4/3 152/4/3 135/4/3
f 200/4/3 192/4/3 191/4/3
f 200/4/3 191/4/3 189/4/3
f 200/4/3 189/4/3 179/4/3
f 201/2/3 198/2/3 197/2/3
f 201/4/3 192/4/3 200/4/3
f 201/2/3 197/2/3 192/2/3
f 202/1/3 199/1/3 198/1/3
f 202/2/3 198/2/3 201/2/3
f 203/3/3 139/3/3 199/3/3
f 203/1/3 199/1/3 202/1/3
f 204/3/3 139/3/3 203/3/3
f 205/4/4 206/4/4 210/4/4
f 206/2/4 207/2/4 211/2/4
f 210/4/4 206/4/4 211/4/4
f 211/2/4 207/2/4 212/2/4
f 207/1/4 208/1/4 213/1/4
f 212/2/4 207/2/4 213/2/4
f 212/1/4 213/1/4 214/1/4
f 213/1/4 208/1/4 214/1/4
f 208/3/4 209/3/4 215/3/4
f 214/1/4 208/1/4 215/1/4
f 205/4/4 210/4/4 216/4/4
f 211/2/4 212/2/4 216/2/4
f 210/2/4 211/2/4 216/2/4
f 216/2/4 212/2/4 217/2/4
f 216/4/4 217/4/4 218/4/4
f 217/2/4 212/2/4 218/2/4
f 218/2/4 212/2/4 219/2/4
f 212/1/4 214/1/4 220/1/4
f 214/3/4 215/3/4 220/3/4
f 215/3/4 209/3/4 221/3/4
f 220/3/4 215/3/4 221/3/4
f 219/2/4 212/2/4 222/2/4
f 212/1/4 220/1/4 222/1/4
f 220/1/4 221/1/4 222/1/4
f 222/1/4 221/1/4 223/1/4
f 218/4/4 219/4/4 224/4/4
f 219/2/4 222/2/4 225/2/4
f 224/4/4 219/4/4 225/4/4
f 222/2/4 223/2/4 225/2/4
f 224/2/4 225/2/4 226/2/4
f 225/2/4 223/2/4 226/2/4
f 223/1/4 221/1/4 227/1/4
f 226/2/4 223/2/4 227/2/4
f 224/2/4 226/2/4 228/2/4
f 218/4/4 224/4/4 228/4/4
f 228/2/4 226/2/4 229/2/4
f 228/4/4 229/4/4 230/4/4
f 229/2/4 226/2/4 230/2/4
f 230/2/4 226/2/4 231/2/4
f 231/2/4 226/2/4 232/2/4
f 226/1/4 227/1/4 233/1/4
f 232/2/4 226/2/4 233/2/4
f 227/1/4 221/1/4 234/1/4
f 233/1/4 227/1/4 234/1/4
f 221/3/4 209/3/4 235/3/4
f 234/1/4 221/1/4 235/1/4
f 233/1/4 234/1/4 236/1/4
f 232/1/4 233/1/4 236/1/4
f 234/3/4 235/3/4 237/3/4
f 236/1/4 234/1/4 237/1/4
f 218/4/4 228/4/4 238/4/4
f 228/4/4 230/4/4 238/4/4
f 230/4/4 231/4/4 238/4/4
f 231/2/4 232/2/4 239/2/4
f 238/4/4 231/4/4 239/4/4
f 232/1/4 236/1/4 240/1/4
f 239/2/4 232/2/4 240/2/4
f 236/3/4 237/3/4 241/3/4
f 240/1/4 236/1/4 241/1/4
f 237/3/4 235/3/4 242/3/4
f 241/3/4 237/3/4 242/3/4
f 235/3/4 209/3/4 243/3/4
f 242/3/4 235/3/4 243/3/4
f 216/4/4 218/4/4 244/4/4
f 205/4/4 216/4/4 244/4/4
f 218/4/4 238/4/4 244/4/4
f 241/2/4 242/2/4 245/2/4
f 244/4/4 238/4/4 245/4/4
f 238/2/4 239/2/4 245/2/4
f 240/2/4 241/2/4 245/2/4
f 239/2/4 240/2/4 245/2/4
f 245/2/4 242/2/4 246/2/4
f 242/1/4 243/1/4 247/1/4
f 246/2/4 242/2/4 247/2/4
f 246/1/4 247/1/4 248/1/4
f 247/1/4 243/1/4 248/1/4
f 243/3/4 209/3/4 249/3/4
f 248/1/4 243/1/4 249/1/4
f 205/4/4 244/4/4 250/4/4
f 245/2/4 246/2/4 250/2/4
f 244/2/4 245/2/4 250/2/4
f 250/2/4 246/2/4 251/2/4
f 250/4/4 251/4/4 252/4/4
f 251/2/4 246/2/4 252/2/4
f 252/2/4 246/2/4 253/2/4
f 246/1/4 248/1/4 254/1/4
f 248/3/4 249/3/4 254/3/4
f 249/3/4 209/3/4 255/3/4
f 254/3/4 249/3/4 255/3/4
f 246/1/4 254/1/4 256/1/4
f 253/2/4 246/2/4 256/2/4
f 254/1/4 255/1/4 256/1/4
f 256/1/4 255/1/4 257/1/4
f 252/4/4 253/4/4 258/4/4
f 253/2/4 256/2/4 259/2/4
f 258/4/4 253/4/4 259/4/4
f 256/2/4 257/2/4 259/2/4
f 252/4/4 258/4/4 260/4/4
f 258/2/4 259/2/4 260/2/4
f 259/2/4 257/2/4 261/2/4
f 260/2/4 259/2/4 261/2/4
f 260/4/4 261/4/4 262/4/4
f 261/2/4 257/2/4 263/2/4
f 262/4/4 261/4/4 263/4/4
f 260/4/4 262/4/4 264/4/4
f 262/2/4 263/2/4 264/2/4
f 263/2/4 257/2/4 265/2/4
f 264/2/4 263/2/4 265/2/4
f 250/4/4 252/4/4 266/4/4
f 205/4/4 250/4/4 266/4/4
f 264/4/4 265/4/4 266/4/4
f 260/4/4 264/4/4 266/4/4
f 252/4/4 260/4/4 266/4/4
f 265/2/4 257/2/4 267/2/4
f 266/4/4 265/4/4 267/4/4
f 257/1/4 255/1/4 268/1/4
f 267/2/4 257/2/4 268/2/4
f 255/3/4 209/3/4 269/3/4
f 268/1/4 255/1/4 269/1/4
f 269/3/4 209/3/4 270/3/4
f 273/4/5 272/4/5 271/4/5
f 274/4/5 272/4/5 273/4/5
f 275/3/6 276/3/6 277/3/6
f 277/3/6 276/3/6 278/3/6
